# xmcd CD database file
#
# Track frame offsets:
#	150
#	19970
#	36145
#	62622
#	69800
#	85665
#	104482
#	124032
#	134037
#	158962
#
# Disc length: 2510 seconds
#
# Revision: 0
# Processed by: cddbd v1.5.1PL0 Copyright (c) Steve Scherf et al.
# Submitted via: CDex 1.51
#
DISCID=8309cc0a
DTITLE=Groove Master - ...And The Day Will Begin
DYEAR=1900
DGENRE=Hard Rock
TTITLE0=Real Life
TTITLE1=Move On
TTITLE2=And The Day Will Begin
TTITLE3=In The Beginning... <Instrument>
TTITLE4=Touch The Flame
TTITLE5=Dancin' In The Ruins <Remakes>
TTITLE6=B.L.S
TTITLE7=Nineteen
TTITLE8=Loving Kindness
TTITLE9=Addition
EXTD=
EXTT0=
EXTT1=
EXTT2=
EXTT3=
EXTT4=
EXTT5=
EXTT6=
EXTT7=
EXTT8=
EXTT9=
PLAYORDER=
